HIERARCHY
ROOT hip
{
  OFFSET 97.157 68.6437 -147.907
  CHANNELS 6 Xposition Yposition Zposition Zrotation Xrotation Yrotation
  JOINT abdomen
  {
    OFFSET 0 20.6881 -0.73152
    CHANNELS 3 Zrotation Xrotation Yrotation
    JOINT chest
    {
      OFFSET 0 11.7043 -0.48768
      CHANNELS 3 Zrotation Xrotation Yrotation
      JOINT neck
      {
        OFFSET 0 22.1894 -2.19456
        CHANNELS 3 Zrotation Xrotation Yrotation
        JOINT head
        {
          OFFSET -0.24384 7.07133 1.2192
          CHANNELS 3 Zrotation Xrotation Yrotation
          JOINT leftEye
          {
            OFFSET 4.14528 8.04674 8.04672
            CHANNELS 3 Zrotation Xrotation Yrotation
            End Site
            {
              OFFSET 1 0 0
            }
          }
          JOINT rightEye
          {
            OFFSET -3.6576 8.04674 8.04672
            CHANNELS 3 Zrotation Xrotation Yrotation
            End Site
            {
              OFFSET 1 0 0
            }
          }
        }
      }
      JOINT rCollar
      {
        OFFSET -2.68224 19.2634 -4.8768
        CHANNELS 3 Zrotation Xrotation Yrotation
        JOINT rShldr
        {
          OFFSET -8.77824 -1.95073 1.46304
          CHANNELS 3 Zrotation Xrotation Yrotation
          JOINT rForeArm
          {
            OFFSET -28.1742 -1.7115 0.48768
            CHANNELS 3 Zrotation Xrotation Yrotation
            JOINT rHand
            {
              OFFSET -22.5879 0.773209 7.07136
              CHANNELS 3 Zrotation Xrotation Yrotation
              JOINT rThumb1
              {
                OFFSET -1.2192 -0.487915 3.41376
                CHANNELS 3 Zrotation Xrotation Yrotation
                JOINT rThumb2
                {
                  OFFSET -3.37035 -0.52449 3.41376
                  CHANNELS 3 Zrotation Xrotation Yrotation
                  End Site
                  {
                    OFFSET -1.78271 -1.18214 1.43049
                  }
                }
              }
              JOINT rIndex1
              {
                OFFSET -7.75947 0.938293 5.60832
                CHANNELS 3 Zrotation Xrotation Yrotation
                JOINT rIndex2
                {
                  OFFSET -2.54057 -0.884171 1.56538
                  CHANNELS 3 Zrotation Xrotation Yrotation
                  End Site
                  {
                    OFFSET -1.62519 -0.234802 1.16502
                  }
                }
              }
              JOINT rMid1
              {
                OFFSET -8.24714 1.18213 3.41376
                CHANNELS 3 Zrotation Xrotation Yrotation
                JOINT rMid2
                {
                  OFFSET -3.10165 -0.590103 1.0647
                  CHANNELS 3 Zrotation Xrotation Yrotation
                  End Site
                  {
                    OFFSET -2.48547 -0.328903 0.83742
                  }
                }
              }
              JOINT rRing1
              {
                OFFSET -8.82822 0.546677 1.51678
                CHANNELS 3 Zrotation Xrotation Yrotation
                JOINT rRing2
                {
                  OFFSET -2.60934 -0.819778 -0.0198488
                  CHANNELS 3 Zrotation Xrotation Yrotation
                  End Site
                  {
                    OFFSET -2.33842 -0.294052 0.168128
                  }
                }
              }
              JOINT rPinky1
              {
                OFFSET -8.27202 -0.0477905 -0.4584
                CHANNELS 3 Zrotation Xrotation Yrotation
                JOINT rPinky2
                {
                  OFFSET -1.82734 -0.647385 -0.700984
                  CHANNELS 3 Zrotation Xrotation Yrotation
                  End Site
                  {
                    OFFSET -1.69225 -0.51767 -0.607171
                  }
                }
              }
            }
          }
        }
      }
      JOINT lCollar
      {
        OFFSET 2.68224 19.2634 -4.8768
        CHANNELS 3 Zrotation Xrotation Yrotation
        JOINT lShldr
        {
          OFFSET 8.77824 -1.95073 1.46304
          CHANNELS 3 Zrotation Xrotation Yrotation
          JOINT lForeArm
          {
            OFFSET 28.1742 -1.7115 0.48768
            CHANNELS 3 Zrotation Xrotation Yrotation
            JOINT lHand
            {
              OFFSET 22.5879 0.773209 7.07136
              CHANNELS 3 Zrotation Xrotation Yrotation
              JOINT lThumb1
              {
                OFFSET 1.2192 -0.487915 3.41376
                CHANNELS 3 Zrotation Xrotation Yrotation
                JOINT lThumb2
                {
                  OFFSET 3.37035 -0.52449 3.41376
                  CHANNELS 3 Zrotation Xrotation Yrotation
                  End Site
                  {
                    OFFSET 1.78271 -1.18214 1.43049
                  }
                }
              }
              JOINT lIndex1
              {
                OFFSET 7.75947 0.938293 5.60832
                CHANNELS 3 Zrotation Xrotation Yrotation
                JOINT lIndex2
                {
                  OFFSET 2.54057 -0.884171 1.56538
                  CHANNELS 3 Zrotation Xrotation Yrotation
                  End Site
                  {
                    OFFSET 1.62519 -0.234802 1.16502
                  }
                }
              }
              JOINT lMid1
              {
                OFFSET 8.24714 1.18213 3.41376
                CHANNELS 3 Zrotation Xrotation Yrotation
                JOINT lMid2
                {
                  OFFSET 3.10165 -0.590103 1.0647
                  CHANNELS 3 Zrotation Xrotation Yrotation
                  End Site
                  {
                    OFFSET 2.48547 -0.328903 0.83742
                  }
                }
              }
              JOINT lRing1
              {
                OFFSET 8.82822 0.546677 1.51678
                CHANNELS 3 Zrotation Xrotation Yrotation
                JOINT lRing2
                {
                  OFFSET 2.60934 -0.819778 -0.0198488
                  CHANNELS 3 Zrotation Xrotation Yrotation
                  End Site
                  {
                    OFFSET 2.33842 -0.294052 0.168128
                  }
                }
              }
              JOINT lPinky1
              {
                OFFSET 8.27202 -0.0477905 -0.4584
                CHANNELS 3 Zrotation Xrotation Yrotation
                JOINT lPinky2
                {
                  OFFSET 1.82734 -0.647385 -0.700984
                  CHANNELS 3 Zrotation Xrotation Yrotation
                  End Site
                  {
                    OFFSET 1.69225 -0.51767 -0.607171
                  }
                }
              }
            }
          }
        }
      }
    }
  }
  JOINT rButtock
  {
    OFFSET -8.77824 4.35084 1.2192
    CHANNELS 3 Zrotation Xrotation Yrotation
    JOINT rThigh
    {
      OFFSET 0 -1.70687 -2.19456
      CHANNELS 3 Zrotation Xrotation Yrotation
      JOINT rShin
      {
        OFFSET 0 -36.8199 0.73152
        CHANNELS 3 Zrotation Xrotation Yrotation
        JOINT rFoot
        {
          OFFSET 0.73152 -45.1104 -5.12064
          CHANNELS 3 Zrotation Xrotation Yrotation
          End Site
          {
            OFFSET -1.1221 -3.69964 12.103
          }
        }
      }
    }
  }
  JOINT lButtock
  {
    OFFSET 8.77824 4.35084 1.2192
    CHANNELS 3 Zrotation Xrotation Yrotation
    JOINT lThigh
    {
      OFFSET 0 -1.70687 -2.19456
      CHANNELS 3 Zrotation Xrotation Yrotation
      JOINT lShin
      {
        OFFSET 0 -36.8199 0.73152
        CHANNELS 3 Zrotation Xrotation Yrotation
        JOINT lFoot
        {
          OFFSET -0.73152 -45.1104 -5.12064
          CHANNELS 3 Zrotation Xrotation Yrotation
          End Site
          {
            OFFSET 1.1221 -3.69964 12.103
          }
        }
      }
    }
  }
}
MOTION
Frames:	6
Frame Time:	0.00833333
-201.889 59.4275 69.8697 2.38037 0.0111359 -0.0455959 -3.13108 0.00208556 -0.0844998 -0.863198 0.0181961 -0.149326 5.78365e-014 7.95139e-016 -4.96962e-017 1.73933e-013 9.54166e-015 -5.43552e-017 -0 0 0 -0 0 0 2.93215e-014 1.95679e-016 0 6.09958e-013 3.86388e-015 2.38542e-015 1.04837e-011 -3.0096e-012 -1.17681e-013 1.20074e-010 3.85732e-012 1.52667e-013 2.83214e-010 1.8384e-012 7.31528e-014 4.89087e-010 3.17419e-012 1.23246e-013 2.83218e-010 1.83637e-012 6.67917e-014 7.73091 5.47488 0.417314 2.83212e-010 1.83786e-012 7.95139e-014 2.90554 0.965183 0.102902 2.83214e-010 1.83836e-012 7.71284e-014 10.2786 0.731801 0.0259123 2.83204e-010 1.84313e-012 9.22361e-014 2.22167 -0.733487 -0.20892 2.91231e-014 2.00726e-016 -2.48481e-016 6.08952e-013 3.64646e-015 9.93923e-016 1.04975e-011 3.26623e-012 -8.90555e-014 1.20037e-010 -2.43524e-012 1.39944e-013 2.83172e-010 1.80353e-012 6.36111e-014 4.89042e-010 3.11376e-012 1.03368e-013 2.83168e-010 1.80337e-012 7.63333e-014 -7.73091 5.47488 -0.417314 2.83173e-010 1.80258e-012 5.725e-014 -2.90554 0.965183 -0.102902 2.83168e-010 1.80308e-012 6.2816e-014 -10.2786 0.731801 -0.0259123 2.83179e-010 1.80656e-012 5.08889e-014 -2.22167 -0.733487 0.20892 -2.03217e-016 0 -3.88251e-019 -1.92036 -1.93503 0.0146507 -0.0084891 -2.07867 -0.0696592 -0.456994 4.00011 0.132212 2.03217e-016 0 3.88251e-019 -2.83982 -9.32608 0.322482 -0.0090148 11.3076 -0.234985 0.529038 -1.99495 -0.0185264 
-197.665 57.875 66.3025 3.78692 3.42088 17.8377 -5.30742 13.072 4.58822 -1.02686 -0.460952 0.989794 -2.04614 4.25808 -2.96418 12.5416 -14.6362 0.00362838 -0 0 0 -0 0 0 4.59621e-014 -8.81573e-013 3.15509e-014 13.5387 1.04409 7.2778 -16.1562 -13.5165 14.824 -0.0185816 -0.17159 -0.0276155 2.71006e-010 3.21495e-010 -3.66661e-010 4.68809e-010 5.56988e-010 -6.33474e-010 2.71009e-010 3.21493e-010 -3.66666e-010 7.73091 5.47488 0.417314 2.71004e-010 3.21494e-010 -3.66656e-010 2.90554 0.965183 0.102902 2.71007e-010 3.21494e-010 -3.66659e-010 10.2786 0.731801 0.0259123 2.70996e-010 3.21498e-010 -3.66646e-010 2.22167 -0.733487 -0.20892 4.58018e-014 -8.81571e-013 3.13307e-014 -27.5837 18.5535 4.73201 6.90808 -3.95585 -9.75835 -0.1133 -7.52111 1.02501 8.55843e-010 5.87784e-010 -3.6638e-010 1.48644e-009 1.01064e-009 -6.20199e-010 8.5584e-010 5.87785e-010 -3.66369e-010 -7.73091 5.47488 -0.417314 8.55843e-010 5.87784e-010 -3.66384e-010 -2.90554 0.965183 -0.102902 8.55837e-010 5.87786e-010 -3.6638e-010 -10.2786 0.731801 -0.0259123 8.55849e-010 5.87787e-010 -3.66392e-010 -2.22167 -0.733487 0.20892 -2.03217e-016 0 -3.88251e-019 -15.2632 -2.1656 -0.909643 0.112375 7.3637 0.245958 0.198752 0.707729 1.16526 2.03217e-016 0 3.88251e-019 1.20524 -24.7651 6.42452 -0.127968 23.0554 -0.533244 -0.571971 2.87254 -2.83499 
-194.433 57.0463 65.3507 3.18424 6.06064 37.0492 -10.1878 26.5915 10.4642 -1.18829 -0.971889 2.21205 -3.74555 8.74009 -6.12998 25.7775 -30.0855 0.0405449 -0 0 0 -0 0 0 6.45309e-014 -1.85661e-012 6.69656e-014 27.5693 2.06755 15.0193 -25.2771 -24.5718 32.9277 -0.0508715 0.000101477 -0.00934454 2.48837e-010 6.73808e-010 -7.81142e-010 4.3162e-010 1.16786e-009 -1.34982e-009 2.48839e-010 6.73805e-010 -7.81146e-010 7.73091 5.47488 0.417314 2.48836e-010 6.73806e-010 -7.81139e-010 2.90554 0.965183 0.102902 2.4884e-010 6.73806e-010 -7.81141e-010 10.2786 0.731801 0.0259123 2.48828e-010 6.73807e-010 -7.81133e-010 2.22167 -0.733487 -0.20892 6.441e-014 -1.85661e-012 6.67761e-014 -60.8893 37.6336 11.7554 12.7957 -7.7849 -20.2642 0.0712381 -15.5576 2.1825 1.50302e-009 1.25249e-009 -7.73841e-010 2.61353e-009 2.15378e-009 -1.30989e-009 1.50302e-009 1.25249e-009 -7.73832e-010 -7.73091 5.47488 -0.417314 1.50302e-009 1.25249e-009 -7.73843e-010 -2.90554 0.965183 -0.102902 1.50301e-009 1.2525e-009 -7.73841e-010 -10.2786 0.731801 -0.0259123 1.50303e-009 1.25249e-009 -7.73852e-010 -2.22167 -0.733487 0.20892 -2.03217e-016 0 -3.88251e-019 -29.4666 -2.36024 -1.86243 0.122309 17.4201 0.601932 1.04478 -2.88167 2.46593 2.03217e-016 0 3.88251e-019 9.93486 -40.3307 15.1422 -0.0918918 35.2527 -0.940024 -1.20711 8.14963 -5.96327 
-191.509 56.4097 64.5845 1.21619 6.37344 53.9901 -17.429 38.0337 17.339 -1.29704 -1.41715 3.26894 -4.79478 12.6358 -9.08992 37.6321 -43.9087 0.0146186 -0 0 0 -0 0 0 7.92433e-014 -2.64511e-012 9.46526e-014 39.8409 2.93106 21.8598 -27.5302 -29.1203 51.6086 -0.0562411 -0.514771 -0.0828496 2.4659e-010 9.6081e-010 -1.10013e-009 4.28252e-010 1.66462e-009 -1.90067e-009 2.4659e-010 9.60807e-010 -1.10013e-009 7.73091 5.47488 0.417314 2.46589e-010 9.60807e-010 -1.10013e-009 2.90554 0.965183 0.102902 2.46593e-010 9.60806e-010 -1.10013e-009 10.2786 0.731801 0.0259123 2.46581e-010 9.60807e-010 -1.10012e-009 2.22167 -0.733487 -0.20892 7.91591e-014 -2.64511e-012 9.44891e-014 -97.1521 53.5846 23.0795 16.8216 -10.4919 -29.7507 0.523693 -22.5332 3.30082 2.00118e-009 1.75974e-009 -1.09927e-009 3.48122e-009 3.0257e-009 -1.8608e-009 2.00118e-009 1.75975e-009 -1.09926e-009 -7.73091 5.47488 -0.417314 2.00118e-009 1.75975e-009 -1.09927e-009 -2.90554 0.965183 -0.102902 2.00117e-009 1.75975e-009 -1.09927e-009 -10.2786 0.731801 -0.0259123 2.00119e-009 1.75975e-009 -1.09928e-009 -2.22167 -0.733487 0.20892 -2.03217e-016 0 -3.88251e-019 -41.9712 -2.62454 -2.75916 0.0141335 26.2454 0.971141 1.86744 -5.86724 3.24876 2.03217e-016 0 3.88251e-019 24.6069 -52.5542 28.4877 0.167072 46.5441 -1.47015 -1.31618 12.4786 -8.66341 
-189.142 56.7867 64.033 -0.466694 5.11476 64.9238 -24.4834 45.4577 23.4146 -1.31668 -1.70046 3.91145 -5.16921 15.1943 -11.3462 45.8978 -53.6664 -0.260471 -0 0 0 -0 0 0 8.43146e-014 -2.96726e-012 1.0302e-013 48.231 3.58082 26.4249 -27.5752 -28.496 64.8531 -0.00925695 -2.74599 -0.386223 2.94146e-010 1.08453e-009 -1.18038e-009 5.09437e-010 1.87608e-009 -2.03778e-009 2.94146e-010 1.08453e-009 -1.18038e-009 7.73091 5.47488 0.417314 2.94145e-010 1.08453e-009 -1.18038e-009 2.90554 0.965183 0.102902 2.94151e-010 1.08453e-009 -1.18038e-009 10.2786 0.731801 0.0259123 2.94138e-010 1.08453e-009 -1.18038e-009 2.22167 -0.733487 -0.20892 8.42604e-014 -2.96726e-012 1.02871e-013 -130.347 63.3678 38.1069 18.963 -11.7608 -36.2181 0.977257 -26.8879 4.08654 2.12681e-009 1.87337e-009 -1.2196e-009 3.70042e-009 3.21961e-009 -2.06476e-009 2.12681e-009 1.87337e-009 -1.21959e-009 -7.73091 5.47488 -0.417314 2.12681e-009 1.87337e-009 -1.2196e-009 -2.90554 0.965183 -0.102902 2.1268e-009 1.87337e-009 -1.2196e-009 -10.2786 0.731801 -0.0259123 2.12681e-009 1.87337e-009 -1.21961e-009 -2.22167 -0.733487 0.20892 -2.03217e-016 0 -3.88251e-019 -50.2223 -3.06413 -3.5156 -0.136084 31.9962 1.27756 2.26225 -7.36099 2.70108 2.03217e-016 0 3.88251e-019 42.2725 -58.5605 44.6995 0.622873 55.5766 -2.07148 -1.30501 14.594 -10.0464 
-186.647 57.2172 63.1265 -1.19955 3.90352 67.6882 -27.3178 48.3063 25.4049 -1.22323 -1.73859 3.98143 -4.94394 15.8807 -12.464 48.9495 -57.7475 -0.949505 -0 0 0 -0 0 0 7.96509e-014 -2.56152e-012 6.75425e-014 51.4334 4.06791 27.7147 -27.7697 -27.8832 70.6074 0.0392925 -7.93243 -1.09509 5.06711e-010 9.76427e-010 -8.4121e-010 8.72197e-010 1.67673e-009 -1.4465e-009 5.0671e-010 9.76427e-010 -8.41215e-010 7.73091 5.47488 0.417314 5.0671e-010 9.76426e-010 -8.41211e-010 2.90554 0.965183 0.102902 5.06716e-010 9.76426e-010 -8.41211e-010 10.2786 0.731801 0.0259123 5.06704e-010 9.76425e-010 -8.41205e-010 2.22167 -0.733487 -0.20892 7.96211e-014 -2.5615e-012 6.73903e-014 -147.477 67.51 47.8026 19.5222 -11.9298 -38.2946 1.26965 -28.5723 4.42333 1.62705e-009 1.30587e-009 -1.05488e-009 2.83049e-009 2.23954e-009 -1.78748e-009 1.62705e-009 1.30587e-009 -1.05487e-009 -7.73091 5.47488 -0.417314 1.62705e-009 1.30587e-009 -1.05488e-009 -2.90554 0.965183 -0.102902 1.62704e-009 1.30588e-009 -1.05488e-009 -10.2786 0.731801 -0.0259123 1.62705e-009 1.30588e-009 -1.05489e-009 -2.22167 -0.733487 0.20892 -2.03217e-016 0 -3.88251e-019 -52.6615 -3.54434 -3.92921 -0.195531 33.0673 1.40985 1.95969 -6.44457 -0.0470757 2.03217e-016 0 3.88251e-019 53.5456 -58.7833 55.8565 1.08865 61.618 -2.54732 -1.57608 13.6652 -9.40153 
